
        <svg xmlns="http://www.w3.org/2000/svg" xmlns:xlink="http://www.w3.org/1999/xlink" version="1.1" width="3214.285714285714" 
        height="1621.1817200130595" viewBox="0 0 3214.285714285714 1621.1817200130595">
			
			<g transform="scale(10.714285714285714) translate(10, 10)">
				<defs id="SvgjsDefs5340"></defs><g id="SvgjsG5341" featureKey="symbolFeature-0" transform="matrix(1.0746268844977096,0,0,1.0746268844977096,86.53432772988894,-6.8776106260036585)" fill="#36961b"><path xmlns="http://www.w3.org/2000/svg" d="M55.5,87.6c-4.9-0.1-7.4-2.5-8.7-6.6c-1.1-3.5-1.6-7.1-2.4-10.6c-0.7-3,0.1-4.8,3.3-6.1c5.3-2.2,9.4-5.8,12.5-11.2  c-5.2,3.4-16.2,11.7-16.4,9.5c0-7.5,4.2-16.2,6.5-23.5c-12,16.5-15,27.5-6.3,46.7c-2-0.5-18.1,5.2-18.1,7.7  c11.3,0,34.1-0.6,43.1-0.6C64.9,87.3,59.9,87.7,55.5,87.6z"></path><path xmlns="http://www.w3.org/2000/svg" d="M63.6,45.9c-2.7,1.6-4.3,4.1-4.2,6.3c0,0.7,5.7-1.9,6-1.3c0.4,0.7-4.5,4.5-3.7,4.8c1.9,0.9,4.7,0.7,7.2-0.8  c3.5-2,6.4-9.8,6.4-9.8S67.1,43.9,63.6,45.9z"></path><path xmlns="http://www.w3.org/2000/svg" d="M66.4,39.7c1.4,0.7,3.5,0.5,5.4-0.6c2.6-1.5,4.8-7.4,4.8-7.4s-6.2-1-8.8,0.6c-2,1.2-3.2,3.1-3.1,4.7c0,0.5,4.3-1.4,4.5-1  C69.5,36.7,65.9,39.5,66.4,39.7z"></path><path xmlns="http://www.w3.org/2000/svg" d="M78.7,33.2c-1.5,0.9-2.4,2.3-2.4,3.6c0,0.4,3.2-1.1,3.4-0.7c0.2,0.4-2.5,2.5-2.1,2.7c1.1,0.5,2.7,0.4,4.1-0.4  c2-1.1,3.6-5.6,3.6-5.6S80.7,32.1,78.7,33.2z"></path><path xmlns="http://www.w3.org/2000/svg" d="M76.7,48.6c-0.1,0.2,2.2,0.4,2.2,0.7c0,0.3-2.2,0.6-2.1,0.9c0.4,0.6,1.4,1.1,2.4,1.1c1.5,0,3.8-2,3.8-2s-2.4-1.9-3.9-1.9  C78.1,47.3,77.1,47.9,76.7,48.6z"></path><path xmlns="http://www.w3.org/2000/svg" d="M82.5,38.7c-1.2,0.2-2.1,1-2.4,1.8c-0.1,0.3,2.4,0.1,2.4,0.3c0.1,0.3-2.3,1.1-2,1.3c0.6,0.6,1.7,0.9,2.8,0.7  C84.9,42.5,87,40,87,40S84.1,38.4,82.5,38.7z"></path><path xmlns="http://www.w3.org/2000/svg" d="M52,48.8c1.1,0.5,2.6,0.4,4.1-0.4c2-1.2,3.6-5.6,3.6-5.6s-4.6-0.7-6.6,0.4c-1.5,0.9-2.4,2.3-2.4,3.6c0,0.4,3.2-1.1,3.4-0.7  C54.3,46.5,51.6,48.6,52,48.8z"></path><path xmlns="http://www.w3.org/2000/svg" d="M69,28.1c0.1,0.4,2.7-2,3-1.7c0.4,0.3-1.6,3.2-1.2,3.2c1.2,0.2,2.6-0.4,3.7-1.7c1.5-1.7,1.7-6.4,1.7-6.4s-4.6,0.7-6.2,2.5  C69,25.3,68.6,26.9,69,28.1z"></path><path xmlns="http://www.w3.org/2000/svg" d="M84.2,26.4c0.3,0.3-1.6,3.2-1.2,3.2c1.2,0.2,2.6-0.4,3.7-1.7c1.5-1.7,1.7-6.4,1.7-6.4s-4.6,0.7-6.2,2.5  c-1.2,1.3-1.6,2.9-1.2,4.1C81.3,28.5,83.9,26.1,84.2,26.4z"></path><path xmlns="http://www.w3.org/2000/svg" d="M69.3,18.3c0.3,0.3-1.6,3.2-1.2,3.2c1.2,0.2,2.7-0.4,3.7-1.7c1.5-1.7,1.7-6.4,1.7-6.4s-4.6,0.7-6.2,2.5  c-1.2,1.3-1.6,2.9-1.2,4.1C66.4,20.4,69,18,69.3,18.3z"></path><path xmlns="http://www.w3.org/2000/svg" d="M59.4,19.6c0.5,0.2,0.7-4.5,1.3-4.5c0.6,0,1.4,4.6,1.9,4.2c1.3-0.9,2.1-2.9,2-5.1c-0.1-3.1-4.3-7.8-4.3-7.8  s-3.8,5.1-3.6,8.1C56.7,16.9,57.9,18.9,59.4,19.6z"></path><path xmlns="http://www.w3.org/2000/svg" d="M56.3,29.4c0.4,0.1-0.2-3.4,0.2-3.5c0.4-0.1,1.8,3.1,2.1,2.7c0.8-0.9,1.1-2.5,0.7-4.1c-0.6-2.2-4.4-5-4.4-5  s-1.9,4.3-1.3,6.5C53.9,27.8,55.1,29.1,56.3,29.4z"></path><path xmlns="http://www.w3.org/2000/svg" d="M32.8,32.4c1.7,0.6,3.3,0.3,4.3-0.5c0.3-0.3-2.9-1.7-2.8-2.1c0.1-0.4,3.6,0.3,3.4-0.2c-0.3-1.2-1.4-2.3-3-2.8  c-2.2-0.7-6.6,0.9-6.6,0.9S30.7,31.7,32.8,32.4z"></path><path xmlns="http://www.w3.org/2000/svg" d="M24.9,28c1.7,0.6,3.3,0.3,4.3-0.5c0.3-0.3-2.9-1.7-2.8-2.1c0.1-0.4,3.6,0.3,3.4-0.2c-0.3-1.2-1.4-2.3-3-2.8  c-2.2-0.7-6.6,0.9-6.6,0.9S22.7,27.3,24.9,28z"></path><path xmlns="http://www.w3.org/2000/svg" d="M26.3,51.6c0.2-0.3-3.3-0.7-3.3-1.1c0-0.5,3.4-0.9,3.2-1.3c-0.7-1-2.1-1.7-3.8-1.7c-2.3,0-5.9,3-5.9,3s3.7,2.9,6,2.9  C24.2,53.5,25.7,52.7,26.3,51.6z"></path><path xmlns="http://www.w3.org/2000/svg" d="M21.3,40c0.2-0.3-3.3-0.7-3.3-1.1c0-0.5,3.4-0.9,3.2-1.3c-0.7-1-2.1-1.7-3.7-1.7c-2.3,0-5.9,3-5.9,3s3.7,2.9,6,2.9  C19.2,41.9,20.7,41.1,21.3,40z"></path><path xmlns="http://www.w3.org/2000/svg" d="M39.3,23.7c0.4,0-1.3-3.1-0.9-3.4c0.4-0.3,2.7,2.4,2.8,1.9c0.5-1.1,0.2-2.7-0.7-4c-1.3-1.9-5.8-3.2-5.8-3.2  s-0.4,4.7,0.9,6.6C36.6,23,38,23.8,39.3,23.7z"></path><path xmlns="http://www.w3.org/2000/svg" d="M49.7,23.7c0.4,0-1.3-3.1-0.9-3.4c0.4-0.3,2.7,2.4,2.8,1.9c0.5-1.1,0.2-2.7-0.7-4c-1.3-1.9-5.8-3.2-5.8-3.2  s-0.4,4.7,0.9,6.6C47,23,48.5,23.8,49.7,23.7z"></path><path xmlns="http://www.w3.org/2000/svg" d="M56.9,29.9c-0.4,2.3,0.2,4.4,1.5,5.5c0.4,0.3,1.7-4.1,2.2-4c0.6,0.1,0.3,4.7,0.9,4.5c1.5-0.6,2.7-2.3,3.1-4.5  c0.6-3-2.4-8.4-2.4-8.4S57.5,27,56.9,29.9z"></path><path xmlns="http://www.w3.org/2000/svg" d="M44.3,34.5c1.4,1.9,3.3,2.9,5,2.7c0.5-0.1-1.8-4.1-1.4-4.4c0.5-0.4,3.6,3,3.8,2.4c0.6-1.5,0.2-3.5-1.1-5.3  c-1.7-2.5-7.8-4.1-7.8-4.1S42.5,32,44.3,34.5z"></path><path xmlns="http://www.w3.org/2000/svg" d="M31.9,48.4c3,0.3,5.7-0.7,6.9-2.5c0.4-0.5-5.5-1.8-5.4-2.5c0.1-0.8,6-0.9,5.7-1.6c-0.9-1.8-3.2-3.2-6-3.6  c-3.9-0.4-10.6,3.9-10.6,3.9S28,47.9,31.9,48.4z"></path><path xmlns="http://www.w3.org/2000/svg" d="M39.1,53c-0.6-1.2-2.2-2.2-4.1-2.4c-2.6-0.3-7.2,2.7-7.2,2.7s3.8,3.9,6.5,4.2c2,0.2,3.8-0.5,4.7-1.7  c0.3-0.4-3.7-1.2-3.7-1.7C35.3,53.5,39.3,53.5,39.1,53z"></path></g><g id="SvgjsG5342" featureKey="nameFeature-0" transform="matrix(0.8552517635820379,0,0,0.8552517635820379,-0.5131502119313952,96.96337991040542)" fill="#44ae26"><path d="M17.72 20.28 l0 4.92 l0 0.04 c0 0.36 -0.28 0.68 -0.64 0.68 s-0.68 -0.32 -0.68 -0.68 s0.32 -0.68 0.68 -0.68 c0.12 0 0.12 0.04 0.24 0.04 c-0.52 -3.96 -4.72 -3.96 -5.12 -3.96 l-1.68 0 l0 16.64 c0 1.88 0.84 2.36 2.08 2.36 l0 0.36 l-6.84 0 l0 -0.36 c1.16 0 2 -0.48 2 -2.36 l0 -16.64 l-1.64 0 c-0.84 0 -4.68 0 -5.12 3.96 c0.04 -0.04 0.12 -0.04 0.24 -0.04 c0.44 0 0.68 0.2 0.68 0.64 s-0.24 0.68 -0.68 0.68 s-0.64 -0.24 -0.64 -0.68 l0 -4.92 l17.12 0 z  M37.353 20.28 l4.96 0 c0.36 0 0.68 0.24 0.68 0.68 c0 0.36 -0.32 0.64 -0.68 0.64 s-0.68 -0.28 -0.68 -0.64 l0 -0.12 c-0.64 0.36 -0.68 1.12 -0.68 3.32 l0 12.04 c0 2.28 -0.12 3 1.36 3.44 l0 0.36 l-4.96 0 l0 -0.36 c0.76 -0.32 0.8 -0.96 0.8 -3.44 l0 -4.84 l-7.68 0 l0 4.84 c0 2.88 0.04 3.12 0.84 3.44 l0 0.36 l-5 0 l0 -0.36 c1.44 -0.4 1.4 -0.8 1.4 -3.44 l0 -12.04 c0 -2.04 -0.04 -2.84 -0.72 -3.28 l0 0.08 c0 0.36 -0.32 0.64 -0.68 0.64 s-0.68 -0.28 -0.68 -0.64 c0 -0.44 0.32 -0.68 0.68 -0.68 l5 0 l0 0.36 c-0.8 0.2 -0.84 0.8 -0.84 3.52 l0 5.84 l7.68 0 l0 -5.84 c0 -2.72 0 -3.28 -0.8 -3.52 l0 -0.36 z M38.153 30.880000000000003 l0 -0.44 l-7.68 0 l0 0.44 l7.68 0 z M65.146 34.16 l0.36 0 l0 5.84 l-14.08 0 l0 -0.36 c1.16 0 1.52 -1 1.52 -2.92 l0 -13.44 c0 -1.4 -0.2 -2.24 -0.88 -2.52 c0 0.04 0.04 0.08 0.04 0.2 c0 0.36 -0.32 0.64 -0.68 0.64 s-0.68 -0.28 -0.68 -0.64 c0 -0.44 0.32 -0.68 0.68 -0.68 l13.72 0 l0 5.04 c0 0.44 -0.24 0.68 -0.68 0.68 s-0.64 -0.24 -0.64 -0.68 s0.2 -0.64 0.64 -0.64 c0.12 0 0.2 0 0.24 0.04 c-0.76 -4.04 -5.2 -4.08 -7.36 -4.08 l-1.52 0 l0 8.76 l1.8 0 c0.76 0 3.76 0.12 3.88 -2.24 l0.36 0 l0 2.64 l-6.12 0 l0 0.48 l6.12 0 l0 2.64 l-0.36 0 c-0.12 -2.4 -3.16 -2.24 -3.88 -2.24 l-1.8 0 l0 8.96 l1.28 0 c2.52 0 7.4 0.12 8.04 -5.48 z M103.852 32.08 l6.56 0 l0 0.36 c-1.6 0 -1.84 0.28 -1.84 6.56 c-1.72 0.64 -4.08 1.16 -7.12 1.16 c-6.04 0 -9.24 -4.52 -9.24 -10.12 c0 -0.76 0.08 -1.48 0.2 -2.24 c0.84 -5 4.44 -7.88 9.52 -7.88 c2.56 0 4.36 0.52 5.96 1.52 c0.12 -0.28 0.12 -0.96 0.16 -1.4 l0.56 0 c-0.12 1.4 -0.08 3.2 -0.12 6.4 l0 0.04 l0 0.04 c0 0.32 -0.28 0.64 -0.64 0.64 s-0.68 -0.32 -0.68 -0.68 s0.28 -0.68 0.64 -0.68 c-0.16 -1 -0.36 -1.72 -0.56 -2.24 c-1.28 -2.6 -3.48 -3.28 -5.32 -3.28 c-2.6 0 -5.52 1.08 -6.04 7.52 c-0.04 0.68 -0.04 1.44 -0.04 2.24 c0 7.72 2.52 9.76 5.6 9.76 c3.32 0 4.64 -0.68 4.64 -3.04 c0 -3.72 -0.36 -4.2 -1.64 -4.32 c0.04 0.12 0.08 0.2 0.08 0.28 c0 0.44 -0.24 0.68 -0.68 0.68 s-0.64 -0.24 -0.64 -0.68 s0.2 -0.64 0.64 -0.64 z M132.405 37.16 c0.52 2.08 2.28 2.44 3 2.44 l0 0.4 l-2.12 0 c-3.6 0 -3.16 -0.04 -4.76 -6.12 c-0.84 -2.96 -3.6 -2.96 -4.36 -2.96 l-1.28 0 l0 6.16 c0 1.92 0.6 2.52 1.76 2.52 l0 0.4 l-6.28 0 l0 -0.4 c1.24 0 1.76 -0.52 1.76 -2.88 l0 -13.96 c0 -1.44 -0.32 -1.96 -1.12 -2.08 c0.04 0.04 0.04 0.12 0.04 0.24 c0 0.36 -0.24 0.68 -0.68 0.68 c-0.36 0 -0.64 -0.32 -0.64 -0.68 s0.28 -0.68 0.64 -0.68 l5.36 0 c5.6 0 8.68 0.68 8.68 5.36 c0 3.8 -2.2 5 -5.24 5.12 c1.92 0.12 3.76 0.24 5.24 6.44 z M122.885 30.560000000000002 l0.84 0 c3.16 0 5.6 0 5.6 -4.96 c0 -5.08 -2.6 -4.96 -5.6 -4.96 l-0.84 0 l0 9.92 z M157.43800000000002 34.16 l0.36 0 l0 5.84 l-14.08 0 l0 -0.36 c1.16 0 1.52 -1 1.52 -2.92 l0 -13.44 c0 -1.4 -0.2 -2.24 -0.88 -2.52 c0 0.04 0.04 0.08 0.04 0.2 c0 0.36 -0.32 0.64 -0.68 0.64 s-0.68 -0.28 -0.68 -0.64 c0 -0.44 0.32 -0.68 0.68 -0.68 l13.72 0 l0 5.04 c0 0.44 -0.24 0.68 -0.68 0.68 s-0.64 -0.24 -0.64 -0.68 s0.2 -0.64 0.64 -0.64 c0.12 0 0.2 0 0.24 0.04 c-0.76 -4.04 -5.2 -4.08 -7.36 -4.08 l-1.52 0 l0 8.76 l1.8 0 c0.76 0 3.76 0.12 3.88 -2.24 l0.36 0 l0 2.64 l-6.12 0 l0 0.48 l6.12 0 l0 2.64 l-0.36 0 c-0.12 -2.4 -3.16 -2.24 -3.88 -2.24 l-1.8 0 l0 8.96 l1.28 0 c2.52 0 7.4 0.12 8.04 -5.48 z M180.031 34.16 l0.36 0 l0 5.84 l-14.08 0 l0 -0.36 c1.16 0 1.52 -1 1.52 -2.92 l0 -13.44 c0 -1.4 -0.2 -2.24 -0.88 -2.52 c0 0.04 0.04 0.08 0.04 0.2 c0 0.36 -0.32 0.64 -0.68 0.64 s-0.68 -0.28 -0.68 -0.64 c0 -0.44 0.32 -0.68 0.68 -0.68 l13.72 0 l0 5.04 c0 0.44 -0.24 0.68 -0.68 0.68 s-0.64 -0.24 -0.64 -0.68 s0.2 -0.64 0.64 -0.64 c0.12 0 0.2 0 0.24 0.04 c-0.76 -4.04 -5.2 -4.08 -7.36 -4.08 l-1.52 0 l0 8.76 l1.8 0 c0.76 0 3.76 0.12 3.88 -2.24 l0.36 0 l0 2.64 l-6.12 0 l0 0.48 l6.12 0 l0 2.64 l-0.36 0 c-0.12 -2.4 -3.16 -2.24 -3.88 -2.24 l-1.8 0 l0 8.96 l1.28 0 c2.52 0 7.4 0.12 8.04 -5.48 z M201.82399999999998 20.28 l8.04 0 l0 0.32 c-4.04 0 -4 4.08 -4 6.64 l0 12.76 l-0.88 0 l-11.92 -15.36 l0 8.36 c0 2.48 0 6.64 3.68 6.64 l0 0.36 l-8.12 0 l0 -0.36 c4.08 0 4.08 -4.12 4.08 -6.64 l0 -8.76 l-1.16 -1.48 c-0.92 -1.24 -1.6 -1.68 -2.12 -1.96 l0 0.16 c0 0.36 -0.32 0.64 -0.68 0.64 s-0.68 -0.28 -0.68 -0.64 c0 -0.44 0.32 -0.68 0.68 -0.68 l0.04 0 l4.64 0 l12.08 15.64 l0 -8.68 c0 -2.56 0 -6.64 -3.68 -6.64 l0 -0.32 z M252.45 37.56 l0.08 0.16 c0.84 1.88 1.4 1.92 2.16 1.92 l0 0.36 l-6.4 0 l0 -0.36 c1.52 0 1.24 -1.6 0.6 -3.16 l-0.88 -2.44 l-7.36 0 c-0.76 2.24 -2.04 5.72 1.88 5.6 l0 0.36 l-6.24 0 l0 -0.36 c1.08 0 1.76 -0.2 4.2 -6.6 l4.08 -11.24 l0.52 -1.56 l1.6 0 l1.16 0 l1.08 0 c0.36 0 0.64 0.32 0.64 0.68 s-0.32 0.64 -0.68 0.64 s-0.68 -0.28 -0.68 -0.64 c0 -0.08 0.04 -0.16 0.08 -0.28 c-1.08 0.16 -1.12 0.8 -0.8 1.96 c0 0.08 0 0.24 4.8 14.44 c0.12 0.28 0.12 0.4 0.16 0.52 z M247.61 32.96 l-3.32 -9.2 l-3.32 9.2 l6.64 0 z M240.73 33.68 l7.16 0 l-0.16 -0.36 l-6.88 0 z M276.723 37.16 c0.52 2.08 2.28 2.44 3 2.44 l0 0.4 l-2.12 0 c-3.6 0 -3.16 -0.04 -4.76 -6.12 c-0.84 -2.96 -3.6 -2.96 -4.36 -2.96 l-1.28 0 l0 6.16 c0 1.92 0.6 2.52 1.76 2.52 l0 0.4 l-6.28 0 l0 -0.4 c1.24 0 1.76 -0.52 1.76 -2.88 l0 -13.96 c0 -1.44 -0.32 -1.96 -1.12 -2.08 c0.04 0.04 0.04 0.12 0.04 0.24 c0 0.36 -0.24 0.68 -0.68 0.68 c-0.36 0 -0.64 -0.32 -0.64 -0.68 s0.28 -0.68 0.64 -0.68 l5.36 0 c5.6 0 8.68 0.68 8.68 5.36 c0 3.8 -2.2 5 -5.24 5.12 c1.92 0.12 3.76 0.24 5.24 6.44 z M267.203 30.560000000000002 l0.84 0 c3.16 0 5.6 0 5.6 -4.96 c0 -5.08 -2.6 -4.96 -5.6 -4.96 l-0.84 0 l0 9.92 z M301.756 34.16 l0.36 0 l0 5.84 l-14.08 0 l0 -0.36 c1.16 0 1.52 -1 1.52 -2.92 l0 -13.44 c0 -1.4 -0.2 -2.24 -0.88 -2.52 c0 0.04 0.04 0.08 0.04 0.2 c0 0.36 -0.32 0.64 -0.68 0.64 s-0.68 -0.28 -0.68 -0.64 c0 -0.44 0.32 -0.68 0.68 -0.68 l13.72 0 l0 5.04 c0 0.44 -0.24 0.68 -0.68 0.68 s-0.64 -0.24 -0.64 -0.68 s0.2 -0.64 0.64 -0.64 c0.12 0 0.2 0 0.24 0.04 c-0.76 -4.04 -5.2 -4.08 -7.36 -4.08 l-1.52 0 l0 8.76 l1.8 0 c0.76 0 3.76 0.12 3.88 -2.24 l0.36 0 l0 2.64 l-6.12 0 l0 0.48 l6.12 0 l0 2.64 l-0.36 0 c-0.12 -2.4 -3.16 -2.24 -3.88 -2.24 l-1.8 0 l0 8.96 l1.28 0 c2.52 0 7.4 0.12 8.04 -5.48 z M325.74899999999997 37.56 l0.08 0.16 c0.84 1.88 1.4 1.92 2.16 1.92 l0 0.36 l-6.4 0 l0 -0.36 c1.52 0 1.24 -1.6 0.6 -3.16 l-0.88 -2.44 l-7.36 0 c-0.76 2.24 -2.04 5.72 1.88 5.6 l0 0.36 l-6.24 0 l0 -0.36 c1.08 0 1.76 -0.2 4.2 -6.6 l4.08 -11.24 l0.52 -1.56 l1.6 0 l1.16 0 l1.08 0 c0.36 0 0.64 0.32 0.64 0.68 s-0.32 0.64 -0.68 0.64 s-0.68 -0.28 -0.68 -0.64 c0 -0.08 0.04 -0.16 0.08 -0.28 c-1.08 0.16 -1.12 0.8 -0.8 1.96 c0 0.08 0 0.24 4.8 14.44 c0.12 0.28 0.12 0.4 0.16 0.52 z M320.909 32.96 l-3.32 -9.2 l-3.32 9.2 l6.64 0 z M314.029 33.68 l7.16 0 l-0.16 -0.36 l-6.88 0 z"></path></g>
			</g>
		</svg>
	